<svg data-name="Layer 2" viewBox="0 0 24 24" xmlns="http://www.w3.org/2000/svg"><path d="M13 20a9 9 0 0 1-9-9 9.27 9.27 0 0 1 .17-1.75 1 1 0 0 1 1.18-.79 1 1 0 0 1 .78 1.17A7.85 7.85 0 0 0 6 11a7 7 0 1 0 1.63-4.49 1 1 0 1 1-1.54-1.28A9 9 0 1 1 13 20Z" fill="#fed2e2" class="fill-333333 fill-e9a5f1 fill-dc965a"></path><path d="M13 12a5 5 0 0 1 0-10 1 1 0 0 1 0 2 3 3 0 0 0 0 6 1 1 0 0 1 0 2Z" fill="#fed2e2" class="fill-333333 fill-e9a5f1 fill-dc965a"></path><path d="M13 20a1 1 0 0 1 0-2 3 3 0 0 0 0-6 1 1 0 0 1 0-2 5 5 0 0 1 0 10Z" fill="#fed2e2" class="fill-333333 fill-e9a5f1 fill-dc965a"></path><path d="M9 16a5 5 0 0 1-5-5 1 1 0 0 1 2 0 3 3 0 0 0 6 0 1 1 0 0 1 2 0 5 5 0 0 1-5 5Z" fill="#fed2e2" class="fill-333333 fill-e9a5f1 fill-dc965a"></path><path d="M21 12a1 1 0 0 1-1-1 3 3 0 0 0-6 0 1 1 0 0 1-2 0 5 5 0 0 1 10 0 1 1 0 0 1-1 1ZM2.5 22.5a1 1 0 0 1-.71-.29 1 1 0 0 1 0-1.42l4.5-4.5a1 1 0 0 1 1.42 1.42l-4.5 4.5a1 1 0 0 1-.71.29Z" fill="#fed2e2" class="fill-333333 fill-e9a5f1 fill-dc965a"></path></svg>